inDegrees=yes
name=IK-live
DataType=double
version=3
OpenSimVersion=4.1
endheader
time	pelvis_tilt	pelvis_list	pelvis_rotation	pelvis_tx	pelvis_ty	pelvis_tz	hip_flexion_r	hip_adduction_r	hip_rotation_r	knee_angle_r	ankle_angle_r	subtalar_angle_r	mtp_angle_r	hip_flexion_l	hip_adduction_l	hip_rotation_l	knee_angle_l	ankle_angle_l	subtalar_angle_l	mtp_angle_l	lumbar_extension	lumbar_bending	lumbar_rotation	neck_flex	neck_latbend	neck_rot	arm_flex_r	arm_add_r	arm_rot_r	elbow_flex_r	pro_sup_r	wrist_flex_r	wrist_dev_r	arm_flex_l	arm_add_l	arm_rot_l	elbow_flex_l	pro_sup_l	wrist_flex_l	wrist_dev_l
0	-14.91731876243204	2.760978986417093	-184.5341323405678	0.2341366603171506	0.04326292228651554	-1.326684523481465	-22.57117169827992	-1.591976316804377	-3.241458145969817	5.899560354604904	2.451982624139334	1.987972377786656	0	-24.74788768789517	-3.395140484746916	-11.58000132048591	9.793848132074926	-0.4439473045988533	4.250290820099795	0	-21.37711699760957	1.659277491615732	3.206407148933037	0	0	0	0.7803654005208841	-15.17650183174278	33.31118754792607	7.010555922166165	24.87461386357078	0	0.01260367440203944	5.871328552468873	-13.22979906733267	43.89857542118362	6.825280285725356	33.48033596136666	0	0.01260367440203944
3.0010955	-14.9230482934615	2.759117324743061	-184.5222284510032	0.2341366603171506	0.04326292228651554	-1.326684523481465	-22.57117169827992	-1.591976316804377	-3.241458145969817	5.899560354604904	2.451982624139334	1.987972377786656	0	-24.74788768789517	-3.395140484746916	-11.58000132048591	9.793848132074926	-0.4439473045988533	4.250290820099795	0	-21.37711699760957	1.659277491615732	3.206407148933037	0	0	0	52.93721777163312	-15.02046155967499	5.478674195788512	76.72201087927799	45.60724485472932	0	5.664560294157632	56.25921643332966	-14.79445153905659	9.312619702349119	77.40750186780643	45.43766553143536	0	5.664560294157632
3.1739395	-14.92771396013646	2.76248816657888	-184.5208546460326	0.2341366603171506	0.04326292228651554	-1.326684523481465	-22.57117169827992	-1.591976316804377	-3.241458145969817	5.899560354604904	2.451982624139334	1.987972377786656	0	-24.74788768789517	-3.395140484746916	-11.58000132048591	9.793848132074926	-0.4439473045988533	4.250290820099795	0	-21.37711699760957	1.659277491615732	3.206407148933037	0	0	0	86.75053707480508	-15.00160123856401	0.4602137009407565	75.14949938135175	45.0586336711645	0	5.07499279263044	87.2215123947411	-14.98391420420858	0.803491080289345	75.20928546216392	45.04225141835381	0	5.07499279263044
3.3253756	-14.92348263110622	2.760063757384044	-184.5199203704871	0.2341366603171506	0.04326292228651554	-1.326684523481465	-22.57117169827992	-1.591976316804377	-3.241458145969817	5.899560354604904	2.451982624139334	1.987972377786656	0	-24.74788768789517	-3.395140484746916	-11.58000132048591	9.793848132074926	-0.4439473045988533	4.250290820099795	0	-21.37711699760957	1.659277491615732	3.206407148933037	0	0	0	87.18366821817597	-15.00136443108273	0.3902797463839666	75.12598726769703	45.04795785837901	0	5.058229032371166	87.59191670641314	-14.98629311862112	0.6814025672076653	75.17635975470598	45.03455843573392	0	5.058229032371166
3.5002558	-14.91446120181085	2.753690288051331	-184.5206147153209	0.2341366603171506	0.04326292228651554	-1.326684523481465	-22.57117169827992	-1.591976316804377	-3.241458145969817	5.899560354604904	2.451982624139334	1.987972377786656	0	-24.74788768789517	-3.395140484746916	-11.58000132048591	9.793848132074926	-0.4439473045988533	4.250290820099795	0	-21.37711699760957	1.659277491615732	3.206407148933037	0	0	0	87.56379698447088	-15.0011582740889	0.3298493730984814	75.10589918509741	45.03922904065329	0	5.04525425707922	87.91697318656708	-14.98836412520532	0.5759007046837944	75.14822888490609	45.02826845911515	0	5.04525425707922
3.6751559	-14.91077284096142	2.757913987566425	-184.519710930961	0.2341366603171506	0.04326292228651554	-1.326684523481465	-22.57117169827992	-1.591976316804377	-3.241458145969817	5.899560354604904	2.451982624139334	1.987972377786656	0	-24.74788768789517	-3.395140484746916	-11.58000132048591	9.793848132074926	-0.4439473045988533	4.250290820099795	0	-21.37711699760957	1.659277491615732	3.206407148933037	0	0	0	87.87734722489523	-15.00098721110027	0.2793597219429861	75.088958698412	45.03176504482216	0	5.034575750062263	88.18508755261296	-14.99008258535897	0.487751792236649	75.12450579682124	45.0228899132125	0	5.034575750062263
3.8501287	-14.91263387834257	2.759983082060381	-184.5216083587377	0.2341366603171506	0.04326292228651554	-1.326684523481465	-22.57117169827992	-1.591976316804377	-3.241458145969817	5.899560354604904	2.451982624139334	1.987972377786656	0	-24.74788768789517	-3.395140484746916	-11.58000132048591	9.793848132074926	-0.4439473045988533	4.250290820099795	0	-21.37711699760957	1.659277491615732	3.206407148933037	0	0	0	88.1558164775182	-15.00083481601012	0.2349399558811986	75.07436213742385	45.02583870864978	0	5.026769593472329	88.42319483587306	-14.99161351203569	0.4101984663675631	75.10406506188644	45.01861940368448	0	5.026769593472329
4.0250135	-14.91418326138864	2.763797161221826	-184.5251035606521	0.2341366603171506	0.04326292228651554	-1.326684523481465	-22.57117169827992	-1.591976316804377	-3.241458145969817	5.899560354604904	2.451982624139334	1.987972377786656	0	-24.74788768789517	-3.395140484746916	-11.58000132048591	9.793848132074926	-0.4439473045988533	4.250290820099795	0	-21.37711699760957	1.659277491615732	3.206407148933037	0	0	0	88.37650356767202	-15.00070158033748	0.1955331165833321	75.06127602139846	45.02057033090093	0	5.020212945293529	88.6118887170762	-14.99295196753895	0.3413961866718789	75.08573950549497	45.01482301855636	0	5.020212945293529
4.199863	-13.2046625112397	7.799371500916298	-203.0908934723581	0.2341366603171506	0.04326292228651554	-1.326684523481465	-22.57117169827992	-1.591976316804377	-3.241458145969817	5.899560354604904	2.451982624139334	1.987972377786656	0	-24.74788768789517	-3.395140484746916	-11.58000132048591	9.793848132074926	-0.4439473045988533	4.250290820099795	0	-21.37711699760957	1.659277491615732	3.206407148933037	0	0	0	88.37651147205834	-15.00070157082445	0.1955295659357531	75.06127445425584	45.02056894071696	0	5.020209988685647	88.61189547529924	-14.99295206310458	0.3413899872717578	75.08573731089349	45.01482201679213	0	5.020209988685647
4.3743153	-11.02694172213899	10.84598840950211	-236.7018683898399	0.2341366603171506	0.04326292228651554	-1.326684523481465	-22.57117169827992	-1.591976316804377	-3.241458145969817	5.899560354604904	2.451982624139334	1.987972377786656	0	-24.74788768789517	-3.395140484746916	-11.58000132048591	9.793848132074926	-0.4439473045988533	4.250290820099795	0	-21.37711699760957	1.659277491615732	3.206407148933037	0	0	0	88.37651944666668	-15.00070156121611	0.1955259784665603	75.06127287020648	45.02056753396042	0	5.020206994552331	88.61190229356157	-14.99295215962785	0.3413837235812879	75.0857350926161	45.01482100308572	0	5.020206994552331
4.5272456	-12.20490373105702	11.66221673330167	-253.1185284988266	0.2341366603171506	0.04326292228651554	-1.326684523481465	-22.57117169827992	-1.591976316804377	-3.241458145969817	5.899560354604904	2.451982624139334	1.987972377786656	0	-24.74788768789517	-3.395140484746916	-11.58000132048591	9.793848132074926	-0.4439473045988533	4.250290820099795	0	-21.37711699760957	1.659277491615732	3.206407148933037	0	0	0	88.37653071307186	-15.00070154740037	0.1955207919663877	75.06127056508841	45.02056544914483	0	5.020202495998237	88.61191192629239	-14.99295229841771	0.3413746679933082	75.08573186456556	45.01481950077112	0	5.020202495998237
4.7001161	-10.49256328347486	12.77988317748794	-259.3865176564102	0.2341366603171506	0.04326292228651554	-1.326684523481465	-22.57117169827992	-1.591976316804377	-3.241458145969817	5.899560354604904	2.451982624139334	1.987972377786656	0	-24.74788768789517	-3.395140484746916	-11.58000132048591	9.793848132074926	-0.4439473045988533	4.250290820099795	0	-21.37711699760957	1.659277491615732	3.206407148933037	0	0	0	88.3765417700362	-15.000701533918	0.1955157393632169	75.06126832411751	45.02056343387025	0	5.020198165836674	88.61192137995415	-14.99295243385849	0.3413658461893895	75.08572872634571	45.01481804856765	0	5.020198165836674
4.875012	-10.79929643766728	11.662817050221	-256.4356697075078	0.2341366603171506	0.04326292228651554	-1.326684523481465	-22.57117169827992	-1.591976316804377	-3.241458145969817	5.899560354604904	2.451982624139334	1.987972377786656	0	-24.74788768789517	-3.395140484746916	-11.58000132048591	9.793848132074926	-0.4439473045988533	4.250290820099795	0	-21.37711699760957	1.659277491615732	3.206407148933037	0	0	0	88.37654986223615	-15.0007015241644	0.1955120972774523	75.06126671576108	45.02056200517961	0	5.020195125073516	88.61192829875681	-14.99295253184092	0.3413594871388144	75.08572647402907	45.01481701905558	0	5.020195125073516
5.0498914	-10.47783982545033	12.19029068333024	-256.4627198908086	0.2341366603171506	0.04326292228651554	-1.326684523481465	-22.57117169827992	-1.591976316804377	-3.241458145969817	5.899560354604904	2.451982624139334	1.987972377786656	0	-24.74788768789517	-3.395140484746916	-11.58000132048591	9.793848132074926	-0.4439473045988533	4.250290820099795	0	-21.37711699760957	1.659277491615732	3.206407148933037	0	0	0	88.37655759986407	-15.00070151485935	0.1955086251351309	75.06126518375629	45.02056064755044	0	5.020192240735107	88.61193491440217	-14.99295262531736	0.3413534248083126	75.08572432863409	45.01481604075028	0	5.020192240735107
5.2243144	-9.802898710986723	11.76131259121319	-255.9069938617597	0.2341366603171506	0.04326292228651554	-1.326684523481465	-22.57117169827992	-1.591976316804377	-3.241458145969817	5.899560354604904	2.451982624139334	1.987972377786656	0	-24.74788768789517	-3.395140484746916	-11.58000132048591	9.793848132074926	-0.4439473045988533	4.250290820099795	0	-21.37711699760957	1.659277491615732	3.206407148933037	0	0	0	88.37656423171349	-15.00070150688065	0.1955056474385784	75.06126386963476	45.02055948210446	0	5.020189762591344	88.61194058461061	-14.99295270546967	0.3413482257757857	75.08572248835929	45.01481520093186	0	5.020189762591344
